<svg width="24" height="25" viewBox="0 0 24 25" fill="none" xmlns="http://www.w3.org/2000/svg">
<path d="M7.5 3.5C4.42 3.5 2 5.92 2 9C2 12.78 5.3998 15.8603 10.5498 20.5303C10.5569 20.5375 11.5019 21.5 12 21.5C12.5 21.5 13.4502 20.54 13.4502 20.54C18.6001 15.8601 22 12.78 22 9C22 5.92 19.58 3.5 16.5 3.5C14.76 3.5 13.09 4.3099 12 5.58984C10.91 4.3099 9.23996 3.5 7.5 3.5ZM7.5 5.5C9.04 5.5 10.5396 6.49035 11.0596 7.86035C11.0634 7.86597 11.5022 8.5 12 8.5C12.4929 8.5 12.9177 7.87809 12.9297 7.86035C13.4597 6.49035 14.96 5.5 16.5 5.5C18.5 5.5 20 7 20 9C20 11.89 16.8596 14.7398 12.0996 19.0498L12 19.1504L11.9004 19.0498C7.14039 14.7398 4 11.89 4 9C4 7 5.5 5.5 7.5 5.5Z" fill="#11C44C"/>
</svg>
