<svg width="24" height="25" viewBox="0 0 24 25" fill="none" xmlns="http://www.w3.org/2000/svg">
<path d="M14.54 3.5C13.2432 3.50011 12.0995 4.33895 11.7256 5.56348L11.6885 5.66895C11.4803 6.19234 10.9665 6.54293 10.3887 6.54297H7.88574C5.18756 6.54297 3.0002 8.69969 3 11.3604V16.4326C3.00026 19.0932 5.1876 21.25 7.88574 21.25H16.1143C18.8124 21.25 20.9997 19.0932 21 16.4326V8.31738C20.9997 5.65677 18.8124 3.5 16.1143 3.5H14.54ZM16.1143 5.02148C17.9603 5.02148 19.4568 6.49703 19.457 8.31738V16.4326C19.4568 18.253 17.9603 19.7285 16.1143 19.7285H7.88574C6.03969 19.7285 4.54323 18.253 4.54297 16.4326V11.3604C4.54317 9.53995 6.03966 8.06445 7.88574 8.06445H10.3887C11.6043 8.06441 12.6854 7.32741 13.124 6.22656L13.2031 6.00098C13.3809 5.41949 13.9241 5.0216 14.54 5.02148H16.1143ZM8 14.5C7.57395 14.5 7 15 7 15.5C7 16 7.57395 16.5 8 16.5H16C16.426 16.5 17 16 17 15.5C17 15 16.426 14.5 16 14.5H8Z" fill="#11C44C"/>
</svg>
