<svg width="24" height="25" viewBox="0 0 24 25" fill="none" xmlns="http://www.w3.org/2000/svg">
<path d="M8.05371 2.5C7.60191 2.5 7.23546 2.86419 7.23535 3.31348V4.16113C4.82552 4.60349 3 6.70397 3 9.22852V17.3467C3 20.1927 5.31988 22.4999 8.18164 22.5H15.8184C18.6801 22.4999 21 20.1927 21 17.3467V9.22852C21 6.70397 19.1745 4.60349 16.7646 4.16113V3.31348C16.7645 2.8642 16.3981 2.5 15.9463 2.5C15.4946 2.50013 15.128 2.86427 15.1279 3.31348V4.0752H8.87207V3.31348C8.87197 2.86427 8.50541 2.50013 8.05371 2.5ZM19.3633 17.3467C19.3633 19.2939 17.7764 20.873 15.8184 20.873H8.18164C6.22362 20.873 4.63672 19.2939 4.63672 17.3467V10.9521H19.3633V17.3467ZM12.0361 16.9756C11.599 16.9756 11.2444 17.328 11.2441 17.7627C11.2441 18.1976 11.5988 18.5508 12.0361 18.5508C12.4734 18.5508 12.8281 18.1976 12.8281 17.7627C12.8279 17.328 12.4733 16.9756 12.0361 16.9756ZM16.2354 16.9707C15.7981 16.9707 15.4434 17.3239 15.4434 17.7588C15.4436 18.1935 15.7982 18.5459 16.2354 18.5459C16.6725 18.5459 17.0271 18.1935 17.0273 17.7588C17.0273 17.3239 16.6726 16.9707 16.2354 16.9707ZM7.76465 16.9717C7.32738 16.9717 6.97266 17.3239 6.97266 17.7588C6.97266 18.1937 7.32738 18.5459 7.76465 18.5459C8.20194 18.5459 8.55664 18.1937 8.55664 17.7588C8.55664 17.3239 8.20194 16.9717 7.76465 16.9717ZM12.0361 12.7754C11.5989 12.7754 11.2443 13.1277 11.2441 13.5625C11.2441 13.9974 11.5988 14.3506 12.0361 14.3506C12.4734 14.3506 12.8281 13.9974 12.8281 13.5625C12.828 13.1277 12.4733 12.7754 12.0361 12.7754ZM16.2354 12.7715C15.7981 12.7715 15.4435 13.1238 15.4434 13.5586C15.4434 13.9935 15.7981 14.3467 16.2354 14.3467C16.6726 14.3466 17.0273 13.9935 17.0273 13.5586C17.0272 13.1238 16.6725 12.7715 16.2354 12.7715ZM7.76465 12.7686C7.32738 12.7686 6.97266 13.1208 6.97266 13.5557C6.97272 13.9905 7.32742 14.3427 7.76465 14.3428C8.20191 14.3428 8.55658 13.9905 8.55664 13.5557C8.55664 13.1208 8.20194 12.7686 7.76465 12.7686ZM15.1279 6.46387L15.1328 6.5459C15.1745 6.95633 15.5226 7.27723 15.9463 7.27734C16.3701 7.27734 16.719 6.95641 16.7607 6.5459L16.7646 6.46387V5.83008C18.2631 6.24196 19.3633 7.60727 19.3633 9.22852V9.32422H4.63672V9.22852C4.63672 7.60727 5.73687 6.24196 7.23535 5.83008V6.46387L7.23926 6.5459C7.28095 6.95641 7.62993 7.27734 8.05371 7.27734C8.47739 7.27723 8.8255 6.95633 8.86719 6.5459L8.87207 6.46387V5.70215H15.1279V6.46387Z" fill="#11C44C"/>
</svg>
