<svg width="24" height="24" viewBox="0 0 24 24" fill="none" xmlns="http://www.w3.org/2000/svg">
<path d="M13.0879 6.04883C13.5529 6.04883 13.7139 6.29747 13.7139 6.85547V11.1982C13.7139 11.6627 13.9157 11.825 14.0547 11.8252C14.3327 11.8252 14.5662 11.6633 15.0762 11.1504C16.6562 9.38739 17.7715 6.66797 17.7715 6.66797C17.9115 6.34412 18.166 6.04896 18.7236 6.04883H20.917C21.579 6.04883 21.7191 6.39047 21.5791 6.85547C21.3019 8.12875 18.6553 11.8598 18.6289 11.8945C18.3979 12.2665 18.3039 12.4521 18.6289 12.8711C18.8619 13.1961 19.6267 13.8462 20.1387 14.4502C21.0805 15.509 21.7911 16.4036 21.9883 17.0186C22.1683 17.6366 21.8545 17.9502 21.2285 17.9502H19.0371C18.2021 17.9502 17.9557 17.2829 16.4697 15.7969C15.169 14.5442 14.6111 14.3799 14.2871 14.3799C13.8461 14.3799 13.7129 14.506 13.7129 15.1318V17.0977C13.7129 17.6376 13.541 17.9511 12.1484 17.9512C9.82452 17.9512 7.27293 16.5413 5.46094 13.9404C2.74294 10.1314 2 7.25095 2 6.66895C2.00001 6.34497 2.12503 6.04982 2.75195 6.0498H4.94434C5.50408 6.0499 5.71487 6.29547 5.92383 6.90234C6.99677 10.026 8.80478 12.7545 9.54785 12.7549C9.82785 12.7549 9.95508 12.6259 9.95508 11.9189V8.69141C9.87408 7.20341 9.08398 7.08073 9.08398 6.55273C9.08413 6.30691 9.29396 6.04902 9.6416 6.04883H13.0879Z" fill="#1D2025"/>
</svg>
