<svg xmlns="http://www.w3.org/2000/svg" viewBox="0 0 40 40" height="40" width="40"><g xmlns="http://www.w3.org/2000/svg" transform="matrix(-1 0 0 -1 40 40)"><path d="M20 3C29.3888 3 37 10.6112 37 20C37 29.3888 29.3888 37 20 37C10.6112 37 3 29.3888 3 20C3 10.6112 10.6112 3 20 3ZM20 5.91406C12.2207 5.91406 5.91406 12.2207 5.91406 20C5.91406 27.7793 12.2207 34.0859 20 34.0859C27.7793 34.0859 34.0859 27.7793 34.0859 20C34.0859 12.2207 27.7793 5.91406 20 5.91406ZM16.6641 12.8643C17.2159 12.3392 18.0888 12.3069 18.6807 12.7666L18.7949 12.8643L25.2246 18.9854C25.7762 19.5105 25.8115 20.3418 25.3291 20.9053L25.2246 21.0137L18.7949 27.1357C18.2065 27.6957 17.2525 27.6956 16.6641 27.1357C16.0758 26.5755 16.0758 25.6667 16.6641 25.1064L22.0283 20L16.6641 14.8926L16.5596 14.7842C16.0774 14.2207 16.1125 13.3893 16.6641 12.8643Z" fill="#1D2025" /></g></svg>