<svg width="24" height="24" viewBox="0 0 24 24" fill="none" xmlns="http://www.w3.org/2000/svg">
<path d="M20.0866 5.04164C20.2239 5.03931 20.5299 5.07323 20.7282 5.23403C20.8959 5.37009 20.9425 5.55424 20.9646 5.68325C20.9866 5.81233 21.0138 6.10607 20.9919 6.33559C20.7425 8.95635 19.6631 15.3161 19.114 18.2516C18.8816 19.4937 18.4241 19.9101 17.9812 19.9508C17.0188 20.0392 16.2883 19.3148 15.3562 18.7038C13.8974 17.7475 13.0729 17.1525 11.6569 16.2194C10.0205 15.141 11.0818 14.5484 12.0144 13.5797C12.26 13.3249 16.4984 9.4689 16.5808 9.11879C16.591 9.07503 16.6005 8.91196 16.5036 8.82582C16.4068 8.73982 16.264 8.76921 16.1609 8.79262C16.0145 8.82583 13.6841 10.3663 9.16964 13.4137C8.50816 13.8679 7.90861 14.0894 7.37179 14.0778C6.77995 14.0649 5.64181 13.7425 4.79562 13.4674C3.75764 13.13 2.93277 12.9516 3.00461 12.3786C3.04228 12.0803 3.45303 11.7753 4.23703 11.4635C9.06863 9.35847 12.2908 7.97003 13.903 7.29946C18.506 5.38494 19.4632 5.05263 20.0866 5.04164Z" fill="#1D2025"/>
</svg>
