<svg width="420" height="420" viewBox="0 0 420 420" fill="none" xmlns="http://www.w3.org/2000/svg">
<path d="M420 210C420 325.98 325.98 420 210 420C94.0202 420 0 325.98 0 210C0 94.0202 94.0202 0 210 0C325.98 0 420 94.0202 420 210Z" fill="white"/>
<path d="M405.415 132.953C414.828 156.808 420 182.8 420 210C420 268.626 395.975 321.64 357.235 359.736C378.353 322.784 377.207 289.622 373 277C369.4 266.2 374.5 235.167 377.5 221C396.014 204.435 408.197 162.338 405.415 132.953Z" fill="#FED602"/>
<path d="M210 0C287.46 0 355.124 41.9385 391.526 104.348C389.988 103.508 388.314 102.885 386.5 102.5C360.1 96.9 339.167 88.6667 333 85C247.5 39 184.667 59.5 158 79.5L150.5 87.5C150 83.6667 145.9 79.9 121.5 79.5C91 79 76.2251 101.494 78.5 130.5C80.5 156 92 199.5 99 223.5C46 280 64.5 272.5 47 287.5C29.5 302.5 46 336.5 47 341.5V342.414C17.6149 306.285 0 260.2 0 210C0 94.0202 94.0202 0 210 0Z" fill="#FED602"/>
<path d="M343 354C349.667 359.5 354 373.8 318 387C324.333 380.833 338.2 365.6 343 354Z" fill="#1D2025"/>
<path d="M371.5 268.5C387.5 311.3 376 343.5 355 362C355 362 350.5 332.5 353 336C355.5 339.5 356.5 344.5 356.5 344.5C359.5 340 363.435 316.833 364.5 304.5L366 308C367 310.5 369.9 320.2 369.5 315C369.1 309.8 370.667 281.833 371.5 268.5Z" fill="#1D2025"/>
<path d="M224.5 336C265.332 337.692 276 322.5 281.5 322C287 321.5 290 321.5 291.5 322C293 322.5 291.284 325.949 289 327.5C260.604 346.776 244 350.5 219.607 346.093C205.03 343.459 190.159 337.159 179.5 326.5C178.5 325 178 324 179 322.5C179 322.5 180 321.5 182.5 321.5C196.804 325.587 209.829 332.911 224.5 336Z" fill="#1D2025"/>
<path d="M48 345C24.4 320.6 39.0492 300.189 46.5 303.5C53.9507 306.811 43.917 339.126 48 345Z" fill="#1D2025"/>
<path d="M334.5 99.0001C338.5 92.8334 354.1 83.3001 384.5 94.5001C422.5 108.5 418.5 199 386 218C380.576 245.569 347.057 304.378 302.5 319.5C293.5 322 296 318 301 315.5C318.833 304.5 356.7 273.4 371.5 227C369 227.167 363.4 227.9 361 229.5C358.414 231.224 432.5 164.5 379.5 106C365.5 96.5001 341 106 334.5 99.0001Z" fill="#1D2025"/>
<path d="M142 292C150.667 297.667 167 309 174.5 319.5C161.5 319 141 311.4 135 299L142 292Z" fill="#1D2025"/>
<path d="M57 279C56.8332 282.334 52.1998 291.5 35 301.5C35.1667 294.667 39.8 280.6 57 279Z" fill="#1D2025"/>
<path d="M235 229.999C249.368 229.999 259.988 236.797 264.472 245.763C265.594 248.007 265.518 250.335 265.078 252.22C264.641 254.09 263.771 255.881 262.789 257.483C260.82 260.692 257.879 263.977 254.808 266.898C251.7 269.852 248.252 272.627 245.094 274.792C243.444 275.923 241.691 277.014 240 277.869V284.337C246.123 287.1 254.448 289.953 262.353 290.551C271.485 291.242 278.72 288.935 282.583 281.655C283.878 279.217 286.905 278.288 289.344 279.582C291.783 280.876 292.711 283.904 291.417 286.343C284.88 298.663 272.615 301.356 261.598 300.523C251.737 299.776 241.812 296.21 234.971 293.031C218.258 300.656 204.901 301.712 194.733 299.19C186.469 297.139 178.077 291.948 174.404 283.969C173.361 281.538 174.396 278.69 176.797 277.511C179.198 276.333 182.085 277.256 183.369 279.568C186.116 284.837 191.487 288.081 197.142 289.484C204.449 291.296 215.21 290.894 230 284.306V278.127C228.83 277.514 227.553 276.721 226.263 275.845C223.157 273.735 219.456 270.802 215.964 267.673C212.488 264.559 209.05 261.1 206.563 257.918C205.332 256.342 204.194 254.659 203.431 252.992C201.058 247.814 203.353 243.762 207.354 240.292C209.339 238.57 211.859 236.879 214.677 235.391C220.27 232.436 227.574 229.999 235 229.999Z" fill="#1D2025"/>
<path d="M94.0156 206.08C94.2962 206.036 94.5206 206.166 94.6631 206.314C94.7961 206.451 94.891 206.632 94.9639 206.815L95.0664 207.049C95.3373 207.633 95.8384 208.482 96.5938 209.853C97.4421 211.392 98.5729 213.529 99.9541 216.542C102.716 222.568 106.474 232.091 110.979 247.359L111.406 248.765C115.878 263.127 122.397 272.357 127.886 278.22C130.72 281.247 133.284 283.382 135.161 284.865C136.091 285.6 136.879 286.195 137.426 286.646C137.701 286.872 137.935 287.079 138.108 287.263C138.195 287.355 138.276 287.451 138.341 287.55C138.388 287.621 138.436 287.71 138.468 287.812L138.493 287.918L138.516 288.097C138.596 288.993 138.167 289.892 137.555 290.7C136.891 291.577 135.946 292.437 134.928 293.211C132.896 294.756 130.473 296.037 129.158 296.475C128.997 296.529 128.818 296.496 128.686 296.389C108.776 280.303 99.5385 254.874 95.6201 235.253C92.3741 236.862 88.2166 237.339 84.3213 237.287C80.6868 237.239 77.2237 236.732 74.834 236.209L73.8779 235.985C73.6527 235.929 73.4962 235.724 73.5 235.491C73.5041 235.259 73.6675 235.06 73.8945 235.011L74.8906 234.781C77.3329 234.183 80.5549 233.149 83.6729 231.601C87.1903 229.853 90.5215 227.475 92.4834 224.379C91.8388 218.802 91.9639 213.832 92.3809 210.54C92.5897 208.891 92.8775 207.614 93.2012 206.896C93.2833 206.713 93.3787 206.543 93.4912 206.406C93.5968 206.278 93.7686 206.119 94.0156 206.08Z" fill="#1D2025"/>
<path d="M151 287C152 285 171.5 263.5 178 265C184.5 266.5 175 270 164.5 277C164.461 277.033 150.002 288.997 151 287Z" fill="#1D2025"/>
<path d="M292 267C299.5 264.5 316.029 282.404 316.954 283.839C317.877 285.271 305.032 277.52 305 277.5C296 273 284.5 269.5 292 267Z" fill="#1D2025"/>
<path d="M46 271.5C51.5 267.5 64.3 260.5 71.5 264.5C80.4997 269.5 49.0004 274 46 271.5Z" fill="#1D2025"/>
<path d="M294.5 252.5C303.082 248.74 323.924 262.572 332 269L314 262.5C309.538 259.745 285.918 256.26 294.5 252.5Z" fill="#1D2025"/>
<path d="M147 268.5C154 261.833 170.3 249 179.5 251C188.7 253 166 257.5 162 260.5L147 268.5Z" fill="#1D2025"/>
<path d="M83.5 245C85.6481 251.94 83.1432 263.402 56.2021 254.241L55.8809 253.991L83.5 245Z" fill="#1D2025"/>
<path d="M55.6729 254.059C55.6133 254.034 55.5501 254.027 55.5 254L55.8809 253.991L55.6729 254.059Z" fill="#1D2025"/>
<path d="M282 210.196C283.5 197.696 299 183.696 309 187.696C317 190.896 320.352 197.03 321.186 200.196C322.185 216.196 303.686 223.696 298.186 218.696C287.82 209.273 287.333 213.53 282 210.196Z" fill="#1D2025"/>
<path d="M169 180.5C179 176.5 194.5 190.5 196 203C190.667 206.333 190.18 202.077 179.814 211.5C174.315 216.5 155.815 209 156.814 193C157.648 189.833 161 183.7 169 180.5Z" fill="#1D2025"/>
<path d="M106 76.5001C123.5 72.0001 145.8 73.4001 157 93.0001C147.167 90.6668 126.5 85.0001 113.5 86.5001C100.5 88.0002 66.9001 121.1 102.5 205.5L88.5 194C69.1667 166.167 56.0001 100 106 76.5001Z" fill="#1D2025"/>
<path d="M366 171.5C361.5 165 378.5 173.5 377.5 180C374.015 180.36 370.485 177.978 366 171.5Z" fill="#1D2025"/>
<path d="M293 160.5C291.5 164.167 286.2 172.3 277 175.5C276.333 172.333 278.6 164.9 293 160.5Z" fill="#1D2025"/>
<path d="M183.5 159.5C188.667 159.333 199.1 162.1 199.5 174.5C195.667 172.5 187.1 166.7 183.5 159.5Z" fill="#1D2025"/>
<path d="M359.223 157.959C356.313 152.594 377.694 159.533 377 163C373.07 164.617 362.5 164 359.223 157.959Z" fill="#1D2025"/>
<path d="M100 159.5C102.5 157.5 109 154.3 115 157.5C112.667 159.667 106.4 163.1 100 159.5Z" fill="#1D2025"/>
<path d="M349.5 149C352.422 147.734 362.5 143.5 368.5 150C365.477 151.053 354 157 349.5 149Z" fill="#1D2025"/>
<path d="M105.5 146.5C108.667 143.667 117.821 138.887 123.5 147C127 152 106.001 150 105.5 146.5Z" fill="#1D2025"/>
<path d="M346 142C351.833 132.5 366.2 115.7 377 124.5C372 127.167 363.1 130.9 361.5 138.5C359.9 146.1 350 145.167 346 142Z" fill="#1D2025"/>
<path d="M112.5 134.5C115.667 133 122.8 131.8 126 139C130 148 114.5 135 112.5 134.5Z" fill="#1D2025"/>
<path d="M106.5 107C114.5 105.667 133.9 109.2 137.5 136C134 137 132.5 138.5 128 136C120.924 128.937 112.083 113.464 106.5 107Z" fill="#1D2025"/>
<path d="M286 70.0001C287 66.5001 292 60.3001 304 63.5001C316 66.7001 333.667 79.1668 341 85.0001C340.833 87.3334 337.2 90.6 324 85.0001C307.5 78.0001 305.5 78.5001 299.5 78.0001C299 76.6668 299.6 73.6001 306 72.0001C299.333 73.5001 286 75.1999 286 70.0001Z" fill="#1D2025"/>
<path d="M160.5 69.0001C163.333 72.0001 166.6 79.4001 157 85.0001C152.944 81.5001 147.966 73.4001 160.5 69.0001Z" fill="#1D2025"/>
<path d="M171 63.5001C180.6 57.9001 175 71.8334 171 79.5001C167 76.5001 161.4 69.1001 171 63.5001Z" fill="#1D2025"/>
<path d="M184.5 58.5001C192.1 52.9001 188.667 65.1668 186 72.0001C182.333 69.8335 176.9 64.1001 184.5 58.5001Z" fill="#1D2025"/>
<path d="M200 54.0001C210 50.8001 201.833 64.0001 196.5 71.0001C193.5 66.6668 190 57.2001 200 54.0001Z" fill="#1D2025"/>
<path d="M273.5 67.5001C270.333 63.3334 267.9 55.3001 283.5 56.5001C303 58.0001 273.501 70.4994 273.5 67.5001Z" fill="#1D2025"/>
<path d="M255 65.0001C255.167 61.0001 258.2 53.2001 269 54.0001C282.5 55.0001 253 70.9997 255 65.0001Z" fill="#1D2025"/>
<path d="M207.5 66.0001C206.667 61.0001 207.6 51.3001 218 52.5001C231 54.0001 213 68.5 207.5 66.0001Z" fill="#1D2025"/>
<path d="M239.5 65.0001C238.167 60.0001 238.2 50.8001 249 54.0001C262.5 58.0001 242.5 65.0001 239.5 65.0001Z" fill="#1D2025"/>
<path d="M234 51.5001C243.5 51.0001 230 67.4998 225 63.5001C224.833 59.6668 226.4 51.9001 234 51.5001Z" fill="#1D2025"/>
</svg>
