<svg width="24" height="24" viewBox="0 0 24 24" fill="none" xmlns="http://www.w3.org/2000/svg">
<path d="M11.9993 3C19.356 3 22.8411 12.0246 17.2141 16.8076L12.4954 20.8174C12.2092 21.0606 11.7904 21.0605 11.5042 20.8174L6.78543 16.8076C1.15884 12.0247 4.64299 3.00043 11.9993 3ZM11.9993 4.54297C5.99715 4.54339 3.30129 11.8237 7.77762 15.6289L11.9993 19.2188L16.2229 15.6289C20.6988 11.8235 18.0016 4.54297 11.9993 4.54297ZM11.9993 7.55566C13.7536 7.55566 15.1767 8.98461 15.177 10.7471C15.177 12.5098 13.7537 13.9395 11.9993 13.9395C10.2451 13.9392 8.82351 12.5096 8.82351 10.7471C8.8238 8.98479 10.2453 7.55595 11.9993 7.55566ZM11.9993 9.09863C11.0934 9.09892 10.359 9.8369 10.3587 10.7471C10.3587 11.6575 11.0932 12.3962 11.9993 12.3965C12.9056 12.3965 13.6409 11.6577 13.6409 10.7471C13.6406 9.83672 12.9054 9.09863 11.9993 9.09863Z" fill="#11C44C" fill-opacity="0.35"/>
</svg>
