<svg width="56" height="56" viewBox="0 0 56 56" fill="none" xmlns="http://www.w3.org/2000/svg">
<path d="M0 28C0 12.536 12.536 0 28 0C43.464 0 56 12.536 56 28C56 43.464 43.464 56 28 56C12.536 56 0 43.464 0 28Z" fill="white"/>
<path d="M36.0866 21.0416C36.2239 21.0393 36.5298 21.0732 36.7282 21.234C36.8959 21.3701 36.9424 21.5542 36.9645 21.6832C36.9866 21.8123 37.0137 22.1061 36.9918 22.3356C36.7424 24.9564 35.663 31.3161 35.1139 34.2516C34.8816 35.4937 34.424 35.9101 33.9811 35.9508C33.0188 36.0392 32.2882 35.3148 31.3561 34.7038C29.8973 33.7475 29.0729 33.1525 27.6569 32.2194C26.0205 31.141 27.0817 30.5484 28.0143 29.5797C28.2599 29.3249 32.4983 25.4689 32.5807 25.1188C32.591 25.075 32.6005 24.912 32.5036 24.8258C32.4067 24.7398 32.264 24.7692 32.1608 24.7926C32.0145 24.8258 29.6841 26.3663 25.1696 29.4137C24.5081 29.8679 23.9085 30.0894 23.3717 30.0778C22.7799 30.0649 21.6417 29.7425 20.7956 29.4674C19.7576 29.13 18.9327 28.9516 19.0045 28.3786C19.0422 28.0803 19.453 27.7753 20.237 27.4635C25.0686 25.3585 28.2908 23.97 29.903 23.2995C34.5059 21.3849 35.4632 21.0526 36.0866 21.0416Z" fill="#1D2025"/>
</svg>
