<svg width="56" height="56" viewBox="0 0 56 56" fill="none" xmlns="http://www.w3.org/2000/svg">
<path d="M0 28C0 12.536 12.536 0 28 0C43.464 0 56 12.536 56 28C56 43.464 43.464 56 28 56C12.536 56 0 43.464 0 28Z" fill="white"/>
<path d="M29.0879 22.0488C29.5529 22.0488 29.7139 22.2975 29.7139 22.8555V27.1982C29.7139 27.6627 29.9157 27.825 30.0547 27.8252C30.3327 27.8252 30.5662 27.6633 31.0762 27.1504C32.6562 25.3874 33.7715 22.668 33.7715 22.668C33.9115 22.3441 34.166 22.049 34.7236 22.0488H36.917C37.579 22.0488 37.7191 22.3905 37.5791 22.8555C37.3019 24.1287 34.6553 27.8598 34.6289 27.8945C34.3979 28.2665 34.3039 28.4521 34.6289 28.8711C34.8619 29.1961 35.6267 29.8462 36.1387 30.4502C37.0805 31.509 37.7911 32.4036 37.9883 33.0186C38.1683 33.6366 37.8545 33.9502 37.2285 33.9502H35.0371C34.2021 33.9502 33.9557 33.2829 32.4697 31.7969C31.169 30.5442 30.6111 30.3799 30.2871 30.3799C29.8461 30.3799 29.7129 30.506 29.7129 31.1318V33.0977C29.7129 33.6376 29.541 33.9511 28.1484 33.9512C25.8245 33.9512 23.2729 32.5413 21.4609 29.9404C18.7429 26.1314 18 23.2509 18 22.6689C18 22.345 18.125 22.0498 18.752 22.0498H20.9443C21.5041 22.0499 21.7149 22.2955 21.9238 22.9023C22.9968 26.026 24.8048 28.7545 25.5479 28.7549C25.8279 28.7549 25.9551 28.6259 25.9551 27.9189V24.6914C25.8741 23.2034 25.084 23.0807 25.084 22.5527C25.0841 22.3069 25.294 22.049 25.6416 22.0488H29.0879Z" fill="#1D2025"/>
</svg>
